<mxfile host="app.diagrams.net" modified="2021-08-16T19:26:49.361Z" agent="5.0 (Macintosh; Intel Mac OS X 10_15_7) AppleWebKit/537.36 (KHTML, like Gecko) Chrome/92.0.4515.131 Safari/537.36" etag="sBlh8CagsoBBw2iFeJV6" version="14.9.5" type="github">
  <diagram id="MafoeCSeV3IzRn4GZ53u" name="Page-1">
    <mxGraphModel dx="1426" dy="769" grid="1" gridSize="10" guides="1" tooltips="1" connect="1" arrows="1" fold="1" page="1" pageScale="1" pageWidth="850" pageHeight="1100" math="0" shadow="0">
      <root>
        <mxCell id="0" />
        <mxCell id="1" parent="0" />
        <mxCell id="swsJ---6AWGxia5NsOWQ-37" style="edgeStyle=orthogonalEdgeStyle;rounded=0;orthogonalLoop=1;jettySize=auto;html=1;entryX=0;entryY=0;entryDx=0;entryDy=52.5;entryPerimeter=0;" edge="1" parent="1" source="swsJ---6AWGxia5NsOWQ-4" target="swsJ---6AWGxia5NsOWQ-14">
          <mxGeometry relative="1" as="geometry" />
        </mxCell>
        <mxCell id="swsJ---6AWGxia5NsOWQ-40" style="edgeStyle=orthogonalEdgeStyle;rounded=0;orthogonalLoop=1;jettySize=auto;html=1;" edge="1" parent="1" source="swsJ---6AWGxia5NsOWQ-4" target="swsJ---6AWGxia5NsOWQ-39">
          <mxGeometry relative="1" as="geometry" />
        </mxCell>
        <mxCell id="swsJ---6AWGxia5NsOWQ-58" style="edgeStyle=orthogonalEdgeStyle;rounded=0;orthogonalLoop=1;jettySize=auto;html=1;" edge="1" parent="1" source="swsJ---6AWGxia5NsOWQ-4" target="swsJ---6AWGxia5NsOWQ-56">
          <mxGeometry relative="1" as="geometry" />
        </mxCell>
        <mxCell id="swsJ---6AWGxia5NsOWQ-66" style="edgeStyle=orthogonalEdgeStyle;rounded=0;orthogonalLoop=1;jettySize=auto;html=1;" edge="1" parent="1" source="swsJ---6AWGxia5NsOWQ-4" target="swsJ---6AWGxia5NsOWQ-64">
          <mxGeometry relative="1" as="geometry" />
        </mxCell>
        <mxCell id="swsJ---6AWGxia5NsOWQ-4" value="Tour Service" style="ellipse;whiteSpace=wrap;html=1;aspect=fixed;" vertex="1" parent="1">
          <mxGeometry x="360" y="200" width="90" height="90" as="geometry" />
        </mxCell>
        <mxCell id="swsJ---6AWGxia5NsOWQ-14" value="Staging DB" style="shape=cylinder3;whiteSpace=wrap;html=1;boundedLbl=1;backgroundOutline=1;size=15;" vertex="1" parent="1">
          <mxGeometry x="680" y="190" width="60" height="80" as="geometry" />
        </mxCell>
        <mxCell id="swsJ---6AWGxia5NsOWQ-28" value="Manage Inventory" style="text;html=1;strokeColor=none;fillColor=none;align=center;verticalAlign=middle;whiteSpace=wrap;rounded=0;" vertex="1" parent="1">
          <mxGeometry x="210" y="250" width="110" height="30" as="geometry" />
        </mxCell>
        <mxCell id="swsJ---6AWGxia5NsOWQ-55" style="edgeStyle=orthogonalEdgeStyle;rounded=0;orthogonalLoop=1;jettySize=auto;html=1;entryX=0;entryY=0.5;entryDx=0;entryDy=0;" edge="1" parent="1" source="swsJ---6AWGxia5NsOWQ-32" target="swsJ---6AWGxia5NsOWQ-4">
          <mxGeometry relative="1" as="geometry" />
        </mxCell>
        <mxCell id="swsJ---6AWGxia5NsOWQ-32" value="UI" style="shape=process;whiteSpace=wrap;html=1;backgroundOutline=1;" vertex="1" parent="1">
          <mxGeometry x="60" y="215" width="120" height="60" as="geometry" />
        </mxCell>
        <mxCell id="swsJ---6AWGxia5NsOWQ-36" value="Sync back into atlas" style="text;html=1;strokeColor=none;fillColor=none;align=center;verticalAlign=middle;whiteSpace=wrap;rounded=0;" vertex="1" parent="1">
          <mxGeometry x="270" y="320" width="130" height="50" as="geometry" />
        </mxCell>
        <mxCell id="swsJ---6AWGxia5NsOWQ-39" value="Replicated Atlas Tables" style="shape=cylinder3;whiteSpace=wrap;html=1;boundedLbl=1;backgroundOutline=1;size=15;" vertex="1" parent="1">
          <mxGeometry x="375" y="10" width="60" height="80" as="geometry" />
        </mxCell>
        <mxCell id="swsJ---6AWGxia5NsOWQ-44" style="edgeStyle=orthogonalEdgeStyle;rounded=0;orthogonalLoop=1;jettySize=auto;html=1;" edge="1" parent="1" source="swsJ---6AWGxia5NsOWQ-43" target="swsJ---6AWGxia5NsOWQ-39">
          <mxGeometry relative="1" as="geometry" />
        </mxCell>
        <mxCell id="swsJ---6AWGxia5NsOWQ-43" value="ETL Sync&lt;br&gt;Once every N minutes" style="ellipse;shape=cloud;whiteSpace=wrap;html=1;" vertex="1" parent="1">
          <mxGeometry x="70" y="20" width="180" height="140" as="geometry" />
        </mxCell>
        <mxCell id="swsJ---6AWGxia5NsOWQ-54" style="edgeStyle=orthogonalEdgeStyle;rounded=0;orthogonalLoop=1;jettySize=auto;html=1;" edge="1" parent="1" source="swsJ---6AWGxia5NsOWQ-53" target="swsJ---6AWGxia5NsOWQ-32">
          <mxGeometry relative="1" as="geometry" />
        </mxCell>
        <mxCell id="swsJ---6AWGxia5NsOWQ-53" value="FlatFile data importer&amp;nbsp;" style="ellipse;shape=cloud;whiteSpace=wrap;html=1;" vertex="1" parent="1">
          <mxGeometry x="40" y="330" width="160" height="130" as="geometry" />
        </mxCell>
        <mxCell id="swsJ---6AWGxia5NsOWQ-56" value="New Atlas Integrator" style="ellipse;whiteSpace=wrap;html=1;aspect=fixed;" vertex="1" parent="1">
          <mxGeometry x="280" y="430" width="80" height="80" as="geometry" />
        </mxCell>
        <mxCell id="swsJ---6AWGxia5NsOWQ-41" value="Inventory Validation" style="text;html=1;strokeColor=none;fillColor=none;align=center;verticalAlign=middle;whiteSpace=wrap;rounded=0;" vertex="1" parent="1">
          <mxGeometry x="400" y="130" width="95" height="40" as="geometry" />
        </mxCell>
        <mxCell id="swsJ---6AWGxia5NsOWQ-59" value="Jasmine DB" style="shape=cylinder3;whiteSpace=wrap;html=1;boundedLbl=1;backgroundOutline=1;size=15;" vertex="1" parent="1">
          <mxGeometry x="470" y="440" width="60" height="80" as="geometry" />
        </mxCell>
        <mxCell id="swsJ---6AWGxia5NsOWQ-67" style="edgeStyle=orthogonalEdgeStyle;rounded=0;orthogonalLoop=1;jettySize=auto;html=1;" edge="1" parent="1" source="swsJ---6AWGxia5NsOWQ-64" target="swsJ---6AWGxia5NsOWQ-59">
          <mxGeometry relative="1" as="geometry" />
        </mxCell>
        <mxCell id="swsJ---6AWGxia5NsOWQ-64" value="Sync Queue" style="ellipse;shape=cloud;whiteSpace=wrap;html=1;" vertex="1" parent="1">
          <mxGeometry x="440" y="330" width="120" height="80" as="geometry" />
        </mxCell>
      </root>
    </mxGraphModel>
  </diagram>
</mxfile>
